<svg xmlns="http://www.w3.org/2000/svg" version="1.1" xmlns:xlink="http://www.w3.org/1999/xlink" xmlns:svgjs="http://svgjs.com/svgjs" width="2000" height="2000" preserveAspectRatio="none" viewBox="0 0 2000 2000"><g mask="url(&quot;#SvgjsMask1129&quot;)" fill="none"><rect width="2000" height="2000" x="0" y="0" fill="rgba(0, 7, 14, 1)"></rect><use xlink:href="#SvgjsG1132" transform="translate(0, 0)" fill="rgba(0, 18, 35, 1)"></use><use xlink:href="#SvgjsG1132" transform="translate(0, 480)" fill="rgba(0, 18, 35, 1)"></use><use xlink:href="#SvgjsG1132" transform="translate(0, 960)" fill="rgba(0, 18, 35, 1)"></use><use xlink:href="#SvgjsG1132" transform="translate(0, 1440)" fill="rgba(0, 18, 35, 1)"></use><use xlink:href="#SvgjsG1132" transform="translate(0, 1920)" fill="rgba(0, 18, 35, 1)"></use><use xlink:href="#SvgjsG1132" transform="translate(480, 0)" fill="rgba(0, 18, 35, 1)"></use><use xlink:href="#SvgjsG1132" transform="translate(480, 480)" fill="rgba(0, 18, 35, 1)"></use><use xlink:href="#SvgjsG1132" transform="translate(480, 960)" fill="rgba(0, 18, 35, 1)"></use><use xlink:href="#SvgjsG1132" transform="translate(480, 1440)" fill="rgba(0, 18, 35, 1)"></use><use xlink:href="#SvgjsG1132" transform="translate(480, 1920)" fill="rgba(0, 18, 35, 1)"></use><use xlink:href="#SvgjsG1132" transform="translate(960, 0)" fill="rgba(0, 18, 35, 1)"></use><use xlink:href="#SvgjsG1132" transform="translate(960, 480)" fill="rgba(0, 18, 35, 1)"></use><use xlink:href="#SvgjsG1132" transform="translate(960, 960)" fill="rgba(0, 18, 35, 1)"></use><use xlink:href="#SvgjsG1132" transform="translate(960, 1440)" fill="rgba(0, 18, 35, 1)"></use><use xlink:href="#SvgjsG1132" transform="translate(960, 1920)" fill="rgba(0, 18, 35, 1)"></use><use xlink:href="#SvgjsG1132" transform="translate(1440, 0)" fill="rgba(0, 18, 35, 1)"></use><use xlink:href="#SvgjsG1132" transform="translate(1440, 480)" fill="rgba(0, 18, 35, 1)"></use><use xlink:href="#SvgjsG1132" transform="translate(1440, 960)" fill="rgba(0, 18, 35, 1)"></use><use xlink:href="#SvgjsG1132" transform="translate(1440, 1440)" fill="rgba(0, 18, 35, 1)"></use><use xlink:href="#SvgjsG1132" transform="translate(1440, 1920)" fill="rgba(0, 18, 35, 1)"></use><use xlink:href="#SvgjsG1132" transform="translate(1920, 0)" fill="rgba(0, 18, 35, 1)"></use><use xlink:href="#SvgjsG1132" transform="translate(1920, 480)" fill="rgba(0, 18, 35, 1)"></use><use xlink:href="#SvgjsG1132" transform="translate(1920, 960)" fill="rgba(0, 18, 35, 1)"></use><use xlink:href="#SvgjsG1132" transform="translate(1920, 1440)" fill="rgba(0, 18, 35, 1)"></use><use xlink:href="#SvgjsG1132" transform="translate(1920, 1920)" fill="rgba(0, 18, 35, 1)"></use></g><defs><mask id="SvgjsMask1129"><rect width="2000" height="2000" fill="#ffffff"></rect></mask><g id="SvgjsG1130"><path d="M0.672 6.194h14.656v3.614H0.672z"></path><path d="M6.194 0.672h3.614v14.656H6.194z"></path></g><g id="SvgjsG1131"><path d="M4.096 1.54l10.36 10.364L11.906 14.46 1.54 4.096 4.096 1.54z" fill-rule="evenodd"></path><path d="M11.904 1.54L14.46 4.1 4.096 14.46 1.54 11.904 11.906 1.544z" fill-rule="evenodd"></path></g><g id="SvgjsG1132"><use xlink:href="#SvgjsG1130" transform="translate(0, 0) scale(2)" fill="rgba(0, 18, 35, 1)"></use><use xlink:href="#SvgjsG1131" transform="translate(0, 48) scale(2)" fill="rgba(0, 18, 35, 1)"></use><use xlink:href="#SvgjsG1130" transform="translate(0, 96) scale(2)" fill="rgba(0, 18, 35, 1)"></use><use xlink:href="#SvgjsG1130" transform="translate(0, 144) scale(2)" fill="rgba(0, 18, 35, 1)"></use><use xlink:href="#SvgjsG1130" transform="translate(0, 192) scale(2)" fill="rgba(0, 18, 35, 1)"></use><use xlink:href="#SvgjsG1130" transform="translate(0, 240) scale(2)" fill="rgba(0, 18, 35, 1)"></use><use xlink:href="#SvgjsG1130" transform="translate(0, 288) scale(2)" fill="rgba(0, 18, 35, 1)"></use><use xlink:href="#SvgjsG1131" transform="translate(0, 336) scale(2)" fill="rgba(0, 18, 35, 1)"></use><use xlink:href="#SvgjsG1130" transform="translate(0, 384) scale(2)" fill="rgba(0, 18, 35, 1)"></use><use xlink:href="#SvgjsG1130" transform="translate(0, 432) scale(2)" fill="rgba(0, 18, 35, 1)"></use><use xlink:href="#SvgjsG1130" transform="translate(48, 0) scale(2)" fill="rgba(0, 18, 35, 1)"></use><use xlink:href="#SvgjsG1131" transform="translate(48, 48) scale(2)" fill="rgba(0, 18, 35, 1)"></use><use xlink:href="#SvgjsG1131" transform="translate(48, 96) scale(2)" fill="rgba(0, 18, 35, 1)"></use><use xlink:href="#SvgjsG1131" transform="translate(48, 144) scale(2)" fill="rgba(0, 18, 35, 1)"></use><use xlink:href="#SvgjsG1130" transform="translate(48, 192) scale(2)" fill="rgba(0, 18, 35, 1)"></use><use xlink:href="#SvgjsG1130" transform="translate(48, 240) scale(2)" fill="rgba(0, 18, 35, 1)"></use><use xlink:href="#SvgjsG1131" transform="translate(48, 288) scale(2)" fill="rgba(0, 18, 35, 1)"></use><use xlink:href="#SvgjsG1130" transform="translate(48, 336) scale(2)" fill="rgba(0, 18, 35, 1)"></use><use xlink:href="#SvgjsG1130" transform="translate(48, 384) scale(2)" fill="rgba(0, 18, 35, 1)"></use><use xlink:href="#SvgjsG1130" transform="translate(48, 432) scale(2)" fill="rgba(0, 18, 35, 1)"></use><use xlink:href="#SvgjsG1130" transform="translate(96, 0) scale(2)" fill="rgba(0, 18, 35, 1)"></use><use xlink:href="#SvgjsG1130" transform="translate(96, 48) scale(2)" fill="rgba(0, 18, 35, 1)"></use><use xlink:href="#SvgjsG1130" transform="translate(96, 96) scale(2)" fill="rgba(0, 18, 35, 1)"></use><use xlink:href="#SvgjsG1130" transform="translate(96, 144) scale(2)" fill="rgba(0, 18, 35, 1)"></use><use xlink:href="#SvgjsG1130" transform="translate(96, 192) scale(2)" fill="rgba(0, 18, 35, 1)"></use><use xlink:href="#SvgjsG1130" transform="translate(96, 240) scale(2)" fill="rgba(0, 18, 35, 1)"></use><use xlink:href="#SvgjsG1130" transform="translate(96, 288) scale(2)" fill="rgba(0, 18, 35, 1)"></use><use xlink:href="#SvgjsG1131" transform="translate(96, 336) scale(2)" fill="rgba(0, 18, 35, 1)"></use><use xlink:href="#SvgjsG1130" transform="translate(96, 384) scale(2)" fill="rgba(0, 18, 35, 1)"></use><use xlink:href="#SvgjsG1130" transform="translate(96, 432) scale(2)" fill="rgba(0, 18, 35, 1)"></use><use xlink:href="#SvgjsG1130" transform="translate(144, 0) scale(2)" fill="rgba(0, 18, 35, 1)"></use><use xlink:href="#SvgjsG1130" transform="translate(144, 48) scale(2)" fill="rgba(0, 18, 35, 1)"></use><use xlink:href="#SvgjsG1131" transform="translate(144, 96) scale(2)" fill="rgba(0, 18, 35, 1)"></use><use xlink:href="#SvgjsG1130" transform="translate(144, 144) scale(2)" fill="rgba(0, 18, 35, 1)"></use><use xlink:href="#SvgjsG1131" transform="translate(144, 192) scale(2)" fill="rgba(0, 18, 35, 1)"></use><use xlink:href="#SvgjsG1130" transform="translate(144, 240) scale(2)" fill="rgba(0, 18, 35, 1)"></use><use xlink:href="#SvgjsG1131" transform="translate(144, 288) scale(2)" fill="rgba(0, 18, 35, 1)"></use><use xlink:href="#SvgjsG1131" transform="translate(144, 336) scale(2)" fill="rgba(0, 18, 35, 1)"></use><use xlink:href="#SvgjsG1131" transform="translate(144, 384) scale(2)" fill="rgba(0, 18, 35, 1)"></use><use xlink:href="#SvgjsG1131" transform="translate(144, 432) scale(2)" fill="rgba(0, 18, 35, 1)"></use><use xlink:href="#SvgjsG1131" transform="translate(192, 0) scale(2)" fill="rgba(0, 18, 35, 1)"></use><use xlink:href="#SvgjsG1130" transform="translate(192, 48) scale(2)" fill="rgba(0, 18, 35, 1)"></use><use xlink:href="#SvgjsG1130" transform="translate(192, 96) scale(2)" fill="rgba(0, 18, 35, 1)"></use><use xlink:href="#SvgjsG1131" transform="translate(192, 144) scale(2)" fill="rgba(0, 18, 35, 1)"></use><use xlink:href="#SvgjsG1131" transform="translate(192, 192) scale(2)" fill="rgba(0, 18, 35, 1)"></use><use xlink:href="#SvgjsG1130" transform="translate(192, 240) scale(2)" fill="rgba(0, 18, 35, 1)"></use><use xlink:href="#SvgjsG1130" transform="translate(192, 288) scale(2)" fill="rgba(0, 18, 35, 1)"></use><use xlink:href="#SvgjsG1131" transform="translate(192, 336) scale(2)" fill="rgba(0, 18, 35, 1)"></use><use xlink:href="#SvgjsG1131" transform="translate(192, 384) scale(2)" fill="rgba(0, 18, 35, 1)"></use><use xlink:href="#SvgjsG1131" transform="translate(192, 432) scale(2)" fill="rgba(0, 18, 35, 1)"></use><use xlink:href="#SvgjsG1131" transform="translate(240, 0) scale(2)" fill="rgba(0, 18, 35, 1)"></use><use xlink:href="#SvgjsG1131" transform="translate(240, 48) scale(2)" fill="rgba(0, 18, 35, 1)"></use><use xlink:href="#SvgjsG1131" transform="translate(240, 96) scale(2)" fill="rgba(0, 18, 35, 1)"></use><use xlink:href="#SvgjsG1131" transform="translate(240, 144) scale(2)" fill="rgba(0, 18, 35, 1)"></use><use xlink:href="#SvgjsG1131" transform="translate(240, 192) scale(2)" fill="rgba(0, 18, 35, 1)"></use><use xlink:href="#SvgjsG1131" transform="translate(240, 240) scale(2)" fill="rgba(0, 18, 35, 1)"></use><use xlink:href="#SvgjsG1131" transform="translate(240, 288) scale(2)" fill="rgba(0, 18, 35, 1)"></use><use xlink:href="#SvgjsG1130" transform="translate(240, 336) scale(2)" fill="rgba(0, 18, 35, 1)"></use><use xlink:href="#SvgjsG1131" transform="translate(240, 384) scale(2)" fill="rgba(0, 18, 35, 1)"></use><use xlink:href="#SvgjsG1130" transform="translate(240, 432) scale(2)" fill="rgba(0, 18, 35, 1)"></use><use xlink:href="#SvgjsG1130" transform="translate(288, 0) scale(2)" fill="rgba(0, 18, 35, 1)"></use><use xlink:href="#SvgjsG1131" transform="translate(288, 48) scale(2)" fill="rgba(0, 18, 35, 1)"></use><use xlink:href="#SvgjsG1131" transform="translate(288, 96) scale(2)" fill="rgba(0, 18, 35, 1)"></use><use xlink:href="#SvgjsG1131" transform="translate(288, 144) scale(2)" fill="rgba(0, 18, 35, 1)"></use><use xlink:href="#SvgjsG1130" transform="translate(288, 192) scale(2)" fill="rgba(0, 18, 35, 1)"></use><use xlink:href="#SvgjsG1131" transform="translate(288, 240) scale(2)" fill="rgba(0, 18, 35, 1)"></use><use xlink:href="#SvgjsG1131" transform="translate(288, 288) scale(2)" fill="rgba(0, 18, 35, 1)"></use><use xlink:href="#SvgjsG1131" transform="translate(288, 336) scale(2)" fill="rgba(0, 18, 35, 1)"></use><use xlink:href="#SvgjsG1130" transform="translate(288, 384) scale(2)" fill="rgba(0, 18, 35, 1)"></use><use xlink:href="#SvgjsG1130" transform="translate(288, 432) scale(2)" fill="rgba(0, 18, 35, 1)"></use><use xlink:href="#SvgjsG1131" transform="translate(336, 0) scale(2)" fill="rgba(0, 18, 35, 1)"></use><use xlink:href="#SvgjsG1130" transform="translate(336, 48) scale(2)" fill="rgba(0, 18, 35, 1)"></use><use xlink:href="#SvgjsG1130" transform="translate(336, 96) scale(2)" fill="rgba(0, 18, 35, 1)"></use><use xlink:href="#SvgjsG1130" transform="translate(336, 144) scale(2)" fill="rgba(0, 18, 35, 1)"></use><use xlink:href="#SvgjsG1131" transform="translate(336, 192) scale(2)" fill="rgba(0, 18, 35, 1)"></use><use xlink:href="#SvgjsG1131" transform="translate(336, 240) scale(2)" fill="rgba(0, 18, 35, 1)"></use><use xlink:href="#SvgjsG1130" transform="translate(336, 288) scale(2)" fill="rgba(0, 18, 35, 1)"></use><use xlink:href="#SvgjsG1131" transform="translate(336, 336) scale(2)" fill="rgba(0, 18, 35, 1)"></use><use xlink:href="#SvgjsG1130" transform="translate(336, 384) scale(2)" fill="rgba(0, 18, 35, 1)"></use><use xlink:href="#SvgjsG1130" transform="translate(336, 432) scale(2)" fill="rgba(0, 18, 35, 1)"></use><use xlink:href="#SvgjsG1131" transform="translate(384, 0) scale(2)" fill="rgba(0, 18, 35, 1)"></use><use xlink:href="#SvgjsG1131" transform="translate(384, 48) scale(2)" fill="rgba(0, 18, 35, 1)"></use><use xlink:href="#SvgjsG1130" transform="translate(384, 96) scale(2)" fill="rgba(0, 18, 35, 1)"></use><use xlink:href="#SvgjsG1131" transform="translate(384, 144) scale(2)" fill="rgba(0, 18, 35, 1)"></use><use xlink:href="#SvgjsG1131" transform="translate(384, 192) scale(2)" fill="rgba(0, 18, 35, 1)"></use><use xlink:href="#SvgjsG1131" transform="translate(384, 240) scale(2)" fill="rgba(0, 18, 35, 1)"></use><use xlink:href="#SvgjsG1130" transform="translate(384, 288) scale(2)" fill="rgba(0, 18, 35, 1)"></use><use xlink:href="#SvgjsG1130" transform="translate(384, 336) scale(2)" fill="rgba(0, 18, 35, 1)"></use><use xlink:href="#SvgjsG1130" transform="translate(384, 384) scale(2)" fill="rgba(0, 18, 35, 1)"></use><use xlink:href="#SvgjsG1131" transform="translate(384, 432) scale(2)" fill="rgba(0, 18, 35, 1)"></use><use xlink:href="#SvgjsG1130" transform="translate(432, 0) scale(2)" fill="rgba(0, 18, 35, 1)"></use><use xlink:href="#SvgjsG1130" transform="translate(432, 48) scale(2)" fill="rgba(0, 18, 35, 1)"></use><use xlink:href="#SvgjsG1130" transform="translate(432, 96) scale(2)" fill="rgba(0, 18, 35, 1)"></use><use xlink:href="#SvgjsG1131" transform="translate(432, 144) scale(2)" fill="rgba(0, 18, 35, 1)"></use><use xlink:href="#SvgjsG1130" transform="translate(432, 192) scale(2)" fill="rgba(0, 18, 35, 1)"></use><use xlink:href="#SvgjsG1131" transform="translate(432, 240) scale(2)" fill="rgba(0, 18, 35, 1)"></use><use xlink:href="#SvgjsG1131" transform="translate(432, 288) scale(2)" fill="rgba(0, 18, 35, 1)"></use><use xlink:href="#SvgjsG1131" transform="translate(432, 336) scale(2)" fill="rgba(0, 18, 35, 1)"></use><use xlink:href="#SvgjsG1131" transform="translate(432, 384) scale(2)" fill="rgba(0, 18, 35, 1)"></use><use xlink:href="#SvgjsG1130" transform="translate(432, 432) scale(2)" fill="rgba(0, 18, 35, 1)"></use></g></defs></svg>